<svg width="48" height="48" viewBox="0 0 48 48" xmlns="http://www.w3.org/2000/svg"><title>Artboard 1</title><g transform="translate(4 5)" stroke="#EB4242" stroke-width="2" fill="none" fill-rule="evenodd"><path d="M27 14h7.07c1.896 0 2.93 1.68 2.93 3.57V27M3 27v-9.43C3 15.68 5.035 14 6.93 14H13"/><ellipse cx="20" cy="10.252" rx="8" ry="10"/><path d="M0 37.022h40C39.923 20.195 24.69 22.78 24.69 22.78s-2.1 4.07-4.69 4.07c-2.593 0-4.69-4.073-4.69-4.073S.077 20.194 0 37.02h40M16 19v5m8-5v5M8 23v14m4-15v15M28 23v14m4-14v14"/></g></svg>