<svg xmlns="http://www.w3.org/2000/svg" width="48" height="48" viewBox="0 0 48 48"><g fill="none" stroke="#27AE60" stroke-width="2" stroke-miterlimit="10"><path d="M31 21h7.07c1.896 0 2.93 1.68 2.93 3.57V34M7 34v-9.43C7 22.68 9.035 21 10.93 21H17"/><ellipse cx="24" cy="17.252" rx="8" ry="10"/><path d="M4 44.022h40C43.923 27.195 28.69 29.78 28.69 29.78S26.59 33.85 24 33.85c-2.593 0-4.69-4.073-4.69-4.073S4.077 27.194 4 44.02h40M20 26v5M28 26v5M12 30v14M16 29v15"/><g><path d="M32 30v14M36 30v14"/></g></g></svg>