<?xml version="1.0" encoding="utf-8"?>
<!-- Generator: Adobe Illustrator 16.0.4, SVG Export Plug-In . SVG Version: 6.00 Build 0)  -->
<!DOCTYPE svg PUBLIC "-//W3C//DTD SVG 1.1//EN" "http://www.w3.org/Graphics/SVG/1.1/DTD/svg11.dtd">
<svg version="1.1" id="Layer_1" xmlns="http://www.w3.org/2000/svg" xmlns:xlink="http://www.w3.org/1999/xlink" x="0px" y="0px"
	 width="100px" height="100px" viewBox="0 0 100 100" enable-background="new 0 0 100 100" xml:space="preserve">
<polygon fill="#111111" points="78.736,93.73 21,93.73 21,17.723 30,17.723 30,21.173 24.45,21.173 24.45,90.279 75.286,90.279 
	75.286,21.173 69.736,21.173 69.736,17.723 78.736,17.723 "/>
<path fill="#111111" d="M71.141,26.641H28.597V20.28c0-3.507,2.854-6.36,6.361-6.36h7.421v-0.781c0-4.129,3.359-7.489,7.488-7.489
	c4.129,0,7.49,3.359,7.49,7.489v0.781h7.42c3.509,0,6.361,2.853,6.361,6.36v6.361H71.141z M32.048,23.191h35.642V20.28
	c0-1.605-1.307-2.91-2.91-2.91H53.906v-4.231c0-2.227-1.812-4.039-4.039-4.039c-2.226,0-4.038,1.812-4.038,4.039v4.231H34.958
	c-1.605,0-2.911,1.305-2.911,2.91L32.048,23.191L32.048,23.191z"/>
<polygon fill="#111111" points="45.649,67.675 33.402,55.427 35.842,52.988 45.649,62.796 66.471,41.975 68.91,44.415 "/>
</svg>
