<svg xmlns="http://www.w3.org/2000/svg" width="800" height="500" viewBox="0 0 800 500"><path fill="#29323B" d="M-10.488-21.23H837V680.38H-10.488z"/><path fill="#FAF096" d="M151.626 102.355l4.51 1.03-4.51 1.03-1.284 4.762-1.284-4.763-4.51-1.03 4.51-1.03 1.284-4.762M251.535 338.546l4.508 1.03-4.508 1.028-1.284 4.763-1.283-4.763-4.51-1.03 4.51-1.028 1.284-4.764M465.27 310.255l3.514.803-3.514.802-1 3.71-1.002-3.71-3.513-.802 3.513-.803 1.002-3.712M589.23 185.283l3.513.802-3.514.802-1 3.712-1.002-3.713-3.513-.802 3.513-.802 1-3.713M546.565 545.363l4.51 1.032-4.51 1.03-1.283 4.763-1.285-4.764-4.508-1.03 4.507-1.03 1.285-4.762M426.257 180.54l4.51 1.03-4.51 1.03-1.283 4.763-1.286-4.763-4.506-1.03 4.506-1.03 1.286-4.762M140.04 232.21l4.51 1.03-4.51 1.03-1.283 4.763-1.284-4.764-4.51-1.03 4.51-1.03 1.284-4.762M116.305 633.385l4.507 1.03-4.507 1.028-1.284 4.764-1.284-4.764-4.508-1.03 4.508-1.028 1.285-4.764M360.442 579.61l3.515.8-3.515.803-1 3.71-1-3.71-3.513-.803 3.51-.8 1.002-3.714M744.514 127.396l3.515.803-3.516.8-.998 3.713-1.002-3.713-3.512-.8 3.512-.804 1.002-3.712M706.714 20.005l3.515.803-3.516.8-1 3.713-1-3.71-3.514-.802 3.513-.803 1.002-3.712M32.668 482.527l3.515.803-3.515.803-1 3.71-1-3.71-3.514-.803 3.513-.803 1-3.71M341.11 232.03l5.308 1.21-5.307 1.21-1.508 5.608-1.512-5.607-5.306-1.21 5.306-1.21 1.512-5.607M594.254 321.177l5.307 1.212-5.306 1.21-1.51 5.606-1.513-5.606-5.304-1.21 5.305-1.213 1.513-5.606M368.53 475.303l5.306 1.21-5.307 1.212-1.51 5.605-1.512-5.605-5.306-1.21 5.306-1.212 1.512-5.606M197.9 20.005l3.514.803-3.515.8-1.002 3.712-1-3.71-3.512-.802 3.51-.803 1.002-3.712M167.54 435.227l3.515.8-3.515.803-1 3.71-1-3.71-3.515-.803 3.514-.8 1-3.713M740 435.227l3.516.802-3.515.8-1 3.71-1-3.71-3.513-.8 3.513-.803 1-3.713M521.228 56.463l3.514.802-3.514.802-1 3.71-1-3.71-3.514-.802 3.513-.802 1-3.713M339.86 51.72l4.51 1.03-4.51 1.03-1.284 4.763-1.285-4.764-4.506-1.03 4.507-1.03 1.286-4.763M641.157 405.36l5.307 1.21-5.307 1.21-1.51 5.606-1.51-5.605-5.308-1.21 5.306-1.21 1.51-5.607M641.157 79.102l5.307 1.21-5.307 1.212-1.51 5.606-1.51-5.606-5.308-1.21 5.306-1.212 1.51-5.605M327.99 390.414l3.515.802-3.514.802-1 3.71-1-3.71-3.513-.802 3.513-.802 1-3.713M86.256 363.12l3.515.803-3.514.802-1 3.712-1-3.712-3.513-.802 3.512-.802 1-3.712M667.822 268.612l3.515.802-3.515.802-1 3.712-1-3.712-3.513-.802 3.51-.802 1.002-3.714M32.668 24.52l3.515.8-3.515.803-1 3.71-1-3.71-3.514-.803 3.513-.8 1-3.713M44.51 155.972l5.308 1.21-5.307 1.212L43 164l-1.51-5.606-5.307-1.21 5.306-1.212 1.51-5.607M501.228 417.098l3.514.803-3.514.803-1 3.71-1.002-3.71-3.513-.802 3.513-.802 1.002-3.712M257.043 185.283l3.515.802-3.515.803-1 3.71-1.002-3.71-3.512-.803 3.513-.802 1.003-3.712M754 232.44l3.515.802-3.515.8-1 3.712-1-3.71-3.515-.802 3.514-.803 1-3.713"/></svg>