<svg xmlns="http://www.w3.org/2000/svg" width="800" height="500" viewBox="0 0 800 500"><path fill="#F7F7F7" d="M-7-9h821v529H-7z"/><g fill="none" stroke="#303030" stroke-width="2" stroke-linecap="round" stroke-linejoin="round" stroke-miterlimit="10"><ellipse cx="540.762" cy="246.625" rx="11.143" ry="12.207"/><path d="M518.883 276.202h43.758c-.082-16.99-16.746-14.38-16.746-14.38s-2.297 4.11-5.13 4.11c-2.837 0-5.132-4.11-5.132-4.11s-16.663-2.61-16.747 14.38h43.758"/></g><g fill="none" stroke="#303030" stroke-width="2" stroke-linecap="round" stroke-linejoin="round" stroke-miterlimit="10"><ellipse cx="586.383" cy="227.874" rx="11.145" ry="12.207"/><path d="M564.506 257.45h43.754c-.082-16.988-16.746-14.38-16.746-14.38s-2.295 4.11-5.13 4.11-5.132-4.11-5.132-4.11-16.664-2.608-16.746 14.38h43.754"/></g><path fill="none" stroke="#303030" stroke-width="2" stroke-linecap="round" stroke-linejoin="round" stroke-miterlimit="10" d="M422.582 246.456l-31.434 49.613m2.135-49.615l31.432 49.614m2.2-15.816H389.44M386.46 209.54h43.077v17.33H386.46zm0-3.61v38.822m43.077-38.822v38.796M437.14 240.196c0 9.142-58.278 9.142-58.278 0m0-10.03v10.436m-4.752-10.55h9.506m53.524.218v10.433m-4.76-10.55h9.51"/><g fill="none" stroke="#303030" stroke-width="2" stroke-linecap="round" stroke-linejoin="round" stroke-miterlimit="10"><path d="M244.64 211.26h38.62v79.482h-61.664v-56.44h23.044zm-13.274 37.924h42.067m-42.067 9.336h42.067m-42.067 8.926h42.067m-42.067 8.754h19.31"/><path d="M244.64 211.26v23.043h-23.044z"/></g><path fill="none" stroke="#303030" stroke-width="2" stroke-linecap="round" stroke-linejoin="round" d="M694.95 208.624h48.386v84.752H694.95z"/><circle fill="none" stroke="#303030" stroke-width="2" stroke-linecap="round" stroke-linejoin="round" stroke-miterlimit="10" cx="735.337" cy="251.002" r="2.433"/><path d="M136.357 275.583c0 3.03-2.458 5.487-5.49 5.487H62.84c-3.03 0-5.486-2.456-5.486-5.487v-35.108c0-3.03 2.456-5.487 5.486-5.487h68.024c3.033 0 5.49 2.456 5.49 5.487v35.108zM83.69 234.988v-8.27c0-3.198 2.456-5.788 5.488-5.788h15.366c3.025 0 5.482 2.59 5.482 5.788v8.27H83.69z" fill="none" stroke="#303030" stroke-width="2" stroke-linecap="round" stroke-linejoin="round"/></svg>