<svg xmlns="http://www.w3.org/2000/svg" width="800" height="500" viewBox="0 0 800 500"><path fill="#497BAD" d="M-7-9h821v529H-7z"/><path fill="#FFF" d="M526.956 330H277.413c-5.717 0-12.413-7.062-12.413-12.805V178.29c0-2.448.91-8.29 12.413-8.29h249.543c5.714 0 8.044 2.51 8.044 8.29v138.905c0 11.556-5.624 12.805-8.044 12.805zM277.413 177c-3.66 0-5.444.88-5.736 1.257l.042 138.913c0 1.882 3.83 5.83 5.692 5.83h249.565c.217 0 1.02-2.11 1.02-5.805V178.29c0-.464-.04-.91-.055-1.162-.234-.015-.575-.128-.988-.128h-249.54z"/><g fill="#FFF"><path d="M337.298 247.69h20.188v27.544c-3.302 1.074-6.474 1.84-9.513 2.29-3.04.45-6.322.675-9.85.675-8.306 0-14.71-2.458-19.213-7.374s-6.754-11.852-6.754-20.81c0-8.83 2.54-15.74 7.618-20.73 5.077-4.99 12.07-7.486 20.975-7.486 5.728 0 11.156 1.1 16.285 3.302l-3.15 7.467c-4.455-2.052-8.907-3.08-13.36-3.08-5.854 0-10.482 1.84-13.884 5.518-3.4 3.678-5.102 8.706-5.102 15.086 0 6.705 1.53 11.8 4.596 15.29 3.064 3.49 7.474 5.235 13.228 5.235 2.902 0 6.004-.362 9.307-1.087v-14.148H337.3v-7.694zM379.626 255.533v21.916h-8.97v-54.862h15.5c7.077 0 12.318 1.326 15.72 3.978 3.404 2.65 5.104 6.654 5.104 12.007 0 6.83-3.55 11.694-10.656 14.596l15.496 24.278h-10.206l-13.133-21.916h-8.854zm0-7.428h6.23c4.177 0 7.203-.775 9.08-2.328 1.875-1.55 2.813-3.85 2.813-6.903 0-3.102-1.014-5.328-3.04-6.68-2.025-1.35-5.08-2.026-9.156-2.026h-5.928v17.937zM419.774 277.45v-54.862h8.972v54.86h-8.972zM487.844 249.493c0 9.054-2.513 15.98-7.54 20.77s-12.273 7.187-21.728 7.187h-15.35v-54.86h16.963c8.728 0 15.522 2.35 20.376 7.054 4.852 4.7 7.278 11.318 7.278 19.85zm-9.454.3c0-13.134-6.145-19.7-18.425-19.7h-7.77v39.81h6.38c13.21 0 19.815-6.7 19.815-20.11z"/></g></svg>