<?xml version="1.0" encoding="utf-8"?>
<!-- Generator: Adobe Illustrator 16.0.4, SVG Export Plug-In . SVG Version: 6.00 Build 0)  -->
<!DOCTYPE svg PUBLIC "-//W3C//DTD SVG 1.1//EN" "http://www.w3.org/Graphics/SVG/1.1/DTD/svg11.dtd">
<svg version="1.1" id="Layer_1" xmlns="http://www.w3.org/2000/svg" xmlns:xlink="http://www.w3.org/1999/xlink" x="0px" y="0px"
	 width="786.918px" height="520.127px" viewBox="0 0 786.918 520.127" enable-background="new 0 0 786.918 520.127"
	 xml:space="preserve">
<g id="Chrome">
	<g id="XMLID_4_">
		<g>
			<path fill="#FFFFFF" d="M0.25,511.34V27.407c0-4.713,3.208-8.538,7.192-8.538h772.035c3.97,0,7.191,3.825,7.191,8.538V511.34
				c0,4.73-3.222,8.538-7.191,8.538H7.442C3.458,519.878,0.25,516.07,0.25,511.34z"/>
		</g>
		<g>
		</g>
	</g>
	<path fill="#E2E2E1" d="M786.671,37.496V7.191c0-3.972-3.219-7.191-7.191-7.191H7.437C3.466,0,0.245,3.22,0.245,7.191v30.304
		H786.671z"/>
	<path fill="#EC5E5A" d="M27.597,19.676c0,4.457-3.616,8.073-8.074,8.073c-4.455,0-8.071-3.616-8.071-8.073s3.616-8.073,8.071-8.073
		C23.981,11.604,27.597,15.219,27.597,19.676z"/>
	<path fill="#E8B25D" d="M54.925,19.676c0,4.457-3.615,8.073-8.074,8.073c-4.455,0-8.071-3.616-8.071-8.073s3.616-8.073,8.071-8.073
		C51.31,11.604,54.925,15.219,54.925,19.676z"/>
	<circle fill="#81C355" cx="74.311" cy="19.676" r="8.073"/>
</g>
</svg>
