<?xml version="1.0" encoding="utf-8"?>
<!-- Generator: Adobe Illustrator 16.0.4, SVG Export Plug-In . SVG Version: 6.00 Build 0)  -->
<!DOCTYPE svg PUBLIC "-//W3C//DTD SVG 1.1//EN" "http://www.w3.org/Graphics/SVG/1.1/DTD/svg11.dtd">
<svg version="1.1" id="Layer_1" xmlns="http://www.w3.org/2000/svg" xmlns:xlink="http://www.w3.org/1999/xlink" x="0px" y="0px"
	 width="800px" height="228.303px" viewBox="0 0 800 228.303" enable-background="new 0 0 800 228.303" xml:space="preserve">
<g>
	<g id="XMLID_4_">
		<g>
			<path fill="#F8F8F8" d="M798.475,20.863v322.326c0,3.15-3.266,5.687-7.288,5.687H8.816c-4.038,0-7.288-2.536-7.288-5.687V20.863
				c0-3.139,3.25-5.687,7.288-5.687h782.371C795.209,15.177,798.475,17.725,798.475,20.863z"/>
		</g>
		<g>
		</g>
	</g>
	<path fill="#E2E2E1" d="M798.478,29.671V5.691c0-3.144-3.264-5.691-7.29-5.691H8.81C4.787,0,1.522,2.547,1.522,5.691v23.98H798.478
		z"/>
	<path fill="#EC5E5A" d="M22.951,15.57c0,3.527-2.833,6.388-6.326,6.388c-3.49,0-6.323-2.861-6.323-6.388s2.833-6.388,6.323-6.388
		C20.119,9.182,22.951,12.043,22.951,15.57z"/>
	<ellipse fill="#E8B25D" cx="38.037" cy="15.57" rx="6.324" ry="6.388"/>
	<ellipse fill="#81C355" cx="59.55" cy="15.57" rx="6.324" ry="6.388"/>
</g>
<rect x="28.364" y="58.303" fill="#EAEAEA" width="204" height="208"/>
<rect x="567.364" y="58.303" fill="#EAEAEA" width="204" height="208"/>
<rect x="298.364" y="58.303" fill="#EAEAEA" width="203" height="208"/>
<rect x="232.364" y="58.303" fill="#F2F2F2" width="66" height="208"/>
<rect x="501.364" y="58.303" fill="#F2F2F2" width="66" height="208"/>
</svg>
