<?xml version="1.0" encoding="UTF-8" standalone="no"?>
<svg width="104px" height="61px" viewBox="0 0 104 61" version="1.1" xmlns="http://www.w3.org/2000/svg" xmlns:xlink="http://www.w3.org/1999/xlink">
    <!-- Generator: Sketch 41.2 (35397) - http://www.bohemiancoding.com/sketch -->
    <title>Group 2</title>
    <desc>Created with Sketch.</desc>
    <defs></defs>
    <g id="Page-1" stroke="none" stroke-width="1" fill="none" fill-rule="evenodd">
        <g id="Triforce-Crest" transform="translate(-2.000000, -4.000000)" fill="#D3B74E">
            <g id="Group-2" transform="translate(2.000000, 4.000000)">
                <polyline id="path3012" points="52.0045566 1.66448183e-16 44.011175 12.0682972 59.9503572 12.0682972 52.0045566 0"></polyline>
                <polyline id="path3014" points="36.0653734 24.0892673 44.011175 12.0682972 52.0045566 24.0892673 36.0653734 24.0892673"></polyline>
                <polygon id="path3016" points="52.0045566 24.0892673 67.9913179 24.0892673 59.9503572 12.0682972"></polygon>
                <path d="M0,3.73158364 L3.90269147,15.4443333 L31.0869565,19.5270633 L31.0869565,22.4050536 L6.66149071,25.0822536 L11.5062114,34.5193828 L31.7598346,26.9562935 L33.0383027,29.4327033 L17.5621117,41.0785225 L24.2236028,45.7636224 L35.5279506,33.2477127 L37.2774331,34.9209633 L31.7598346,47.9723125 L38.4213248,49.3109129 L40.7763972,37.3973731 C42.8720575,37.6809753 45.949898,37.3973731 45.8667809,34.5193828 C45.8262746,33.1168278 45.1687421,31.3974759 42.736005,30.6508799 C32.238847,27.4293462 34.384058,14.3734534 37.6811594,8.95212387 C33.740103,12.0682972 33.4597561,13.6412838 32.3654246,15.1096841 C30.5654766,14.6328074 0,3.73158364 0,3.73158364 Z" id="path3082"></path>
                <path d="M103.976449,3.73158364 L100.073758,15.4443333 L72.8894928,19.5270633 L72.8894928,22.4050536 L97.3149582,25.0822536 L92.4702378,34.5193828 L72.2166146,26.9562935 L70.9381466,29.4327033 L86.4143376,41.0785225 L79.7528465,45.7636224 L68.4484987,33.2477127 L66.6990162,34.9209633 L72.2166146,47.9723125 L65.5551245,49.3109129 L63.200052,37.3973731 C61.1043917,37.6809753 58.0265513,37.3973731 58.1096684,34.5193828 C58.1501747,33.1168278 58.8077072,31.3974759 61.2404443,30.6508799 C71.7376023,27.4293462 69.5923913,14.3734534 66.2952899,8.95212387 C70.2363463,12.0682972 70.5166932,13.6412838 71.6110247,15.1096841 C73.4109727,14.6328074 103.976449,3.73158364 103.976449,3.73158364 Z" id="path3082-1"></path>
                <path d="M42.6268116,56.4389569 L41.5165636,59.7519925 L45.839803,55.6692625 C45.839803,55.6692625 46.2939957,54.799172 45.3519667,54.3641276 L43.7885773,54.3641276 C43.4847306,54.3066096 43.7181352,53.7586197 43.7181352,53.7586197 C43.7181352,53.7586197 45.8871033,50.280381 47.0425725,48.4073577 C47.3429638,47.0147165 45.1571504,45.7636224 44.011175,47.0269268 C42.6268116,49.799761 40.7595764,54.3641276 40.4736028,54.3641276 L32.3654246,54.3641276 C32.3654246,54.3641276 30.8178057,54.640214 31.7598346,55.8700527 C32.7018636,57.0998914 38.0175985,60.9901969 38.0175985,60.9901969 L35.9905537,56.4389569 L42.6268116,56.4389569 Z" id="path3120"></path>
                <path d="M61.35506,56.4389569 L62.465308,59.7519925 L58.1420686,55.6692625 C58.1420686,55.6692625 57.6878759,54.799172 58.6299049,54.3641276 L60.1932943,54.3641276 C60.497141,54.3066096 60.2637364,53.7586197 60.2637364,53.7586197 C60.2637364,53.7586197 58.0947683,50.280381 56.9392991,48.4073577 C56.6389078,47.0147165 58.8247212,45.7636224 59.9706966,47.0269268 C61.35506,49.799761 63.2222952,54.3641276 63.5082688,54.3641276 L71.616447,54.3641276 C71.616447,54.3641276 73.1640659,54.640214 72.222037,55.8700527 C71.280008,57.0998914 65.9642731,60.9901969 65.9642731,60.9901969 L67.9913179,56.4389569 L61.35506,56.4389569 Z" id="path3120-7"></path>
                <path d="M52.0045566,27.8044109 C51.9331875,29.2242108 50.0283729,32.7265806 49.5287867,33.2479113 C49.1276481,33.66651 48.5773883,34.5191626 47.4592667,37.3971529 C46.3411462,40.2751432 46.8033433,40.4118422 44.4859878,42.0968937 C54.0159656,46.4559012 48.5779262,50.8780723 48.5779262,51.8946087 C49.7715023,54.8958031 52.0045566,60.9573487 52.0045566,60.9573487 C52.0045566,60.9573487 54.234667,54.8958031 55.4282432,51.8946087 C55.4282432,50.8780723 49.9902038,46.4559012 59.5201816,42.0968937 C57.2028261,40.4118422 57.6650232,40.2751432 56.5469026,37.3971529 C55.4287811,34.5191626 54.8785212,33.66651 54.4773827,33.2479113 C53.9777964,32.7265806 52.0759257,29.2242108 52.0045566,27.8044109 L52.0045566,27.8044109 Z" id="path3156"></path>
            </g>
        </g>
    </g>
</svg>