<svg xmlns="http://www.w3.org/2000/svg" width="800" height="500" viewBox="0 0 800 500"><path fill="#FFB726" d="M0 0h800v500H0V0z"/><path fill="#F8F5F0" d="M374.875 329.273l-29.562-17.44v-29.46L320.18 267.55v-34.73l25.132-14.817v-29.838l29.56-17.44L400 185.545l25.128-14.818 29.56 17.44v29.84l25.133 14.816v34.73l-25.133 14.82v29.47l-29.56 17.434L400 314.463l-25.128 14.812.003-.002zm29.57-22.513l20.684 12.19 20.666-12.19v-24.392l-20.828-12.286-20.523 12.105v24.573zm-50.243-.004l20.672 12.195 20.68-12.19v-24.57l-20.52-12.108-20.83 12.287v24.39-.004zm75.372-44.468l20.826 12.29 20.53-12.105V237.9l-20.684-12.194-20.673 12.194v24.388zm-100.504.185l20.522 12.104 20.83-12.292V237.9l-20.674-12.195-20.68 12.194.002 24.573zm50.246-.19l20.685 12.2 20.685-12.198v-24.562L400 225.518l-20.684 12.207v24.558zm25.13-44.467l20.683 12.204 20.666-12.202v-24.575l-20.668-12.195-20.685 12.195v24.573h.003zm-50.244.003l20.672 12.2 20.68-12.204v-24.573l-20.68-12.195-20.672 12.194V217.82z"/><path fill="#FFB726" d="M478.875 882.274l-29.564-17.44v-29.46l-25.13-14.823v-34.728l25.13-14.817v-29.838l29.562-17.44L504 738.542l25.13-14.815 29.558 17.44v29.84l25.134 14.815v34.73l-25.132 14.82v29.47l-29.56 17.435L504 867.46l-25.125 14.814zm29.57-22.514l20.684 12.19 20.666-12.19v-24.392l-20.828-12.286-20.523 12.104v24.574zm-50.244-.004l20.676 12.195 20.678-12.19v-24.57l-20.52-12.108-20.83 12.287v24.39l-.003-.004zm75.375-44.468l20.826 12.29 20.53-12.105V790.9l-20.683-12.194-20.673 12.194v24.388zm-100.504.185l20.523 12.104 20.83-12.292V790.9l-20.674-12.195-20.68 12.194v24.573zm50.247-.19l20.684 12.2 20.685-12.198v-24.562L504 778.518l-20.684 12.207v24.558zm25.13-44.467l20.683 12.203 20.667-12.202v-24.574L529.13 734.05l-20.685 12.194v24.572h.002zm-50.245.002l20.675 12.2 20.678-12.202v-24.572l-20.678-12.195-20.674 12.193v24.575z"/></svg>