<svg xmlns="http://www.w3.org/2000/svg" width="773.238" height="1394.93" viewBox="0 0 773.238 1394.93"><path fill="#F8F5F0" d="M-34.762-42h919v1452h-919z"/><defs><filter id="a" filterUnits="userSpaceOnUse" x="40.813" y="39.905" width="145.612" height="145.612"><feColorMatrix values="1 0 0 0 0 0 1 0 0 0 0 0 1 0 0 0 0 0 1 0"/></filter></defs><mask maskUnits="userSpaceOnUse" x="40.813" y="39.905" width="145.612" height="145.612" id="b"><path fill="#FFF" d="M91.585 39.923h44.067c14.617 0 21.922 0 29.79 2.483 8.59 3.128 15.354 9.892 18.48 18.483 2.485 7.864 2.485 15.172 2.485 29.786v44.07c0 14.612 0 21.92-2.486 29.786-3.124 8.59-9.89 15.354-18.48 18.48-7.866 2.487-15.17 2.487-29.788 2.487H91.585c-14.615 0-21.922 0-29.79-2.488-8.588-3.126-15.352-9.89-18.48-18.48-2.485-7.866-2.485-15.174-2.485-29.786v-44.07c0-14.613 0-21.92 2.486-29.787 3.127-8.592 9.89-15.355 18.48-18.484 7.868-2.483 15.174-2.483 29.79-2.483" filter="url(#a)"/></mask><path fill="#FFB725" d="M40.813 39.905h145.612v145.612H40.813z" mask="url(#b)"/><path fill="#FFF" d="M131.238 105.712l-21-11.703V70.553l21-11.707 21 11.707V94.01l-21 11.702zm-15-14.675l15.5 8.78 15.5-8.78V73.524l-15.5-8.778-15.5 8.778v17.513z"/><path fill="#FFF" d="M113.738 136.145l-20.5-11.704v-23.456l20.5-11.704 20.5 11.704v23.457l-20.5 11.705zm-15.5-14.676l15.5 8.78 15.5-8.78v-17.514l-15.5-8.777-15.5 8.776v17.513z"/><path fill="#FFF" d="M95.738 105.712l-20.5-11.703V70.553l20.5-11.707 20.5 11.707V94.01l-20.5 11.702zm-15.5-14.675l15 8.78 15-8.78V73.524l-15-8.778-15 8.778v17.513zM149.238 136.145l-20-11.704v-23.456l20-11.704 20 11.704v23.457l-20 11.705zm-15-14.676l15 8.78 15-8.78v-17.514l-15-8.777-15 8.776v17.513z"/><path fill="#FFF" d="M77.238 136.145l-21-11.704v-23.456l21-11.704 21 11.704v23.457l-21 11.705zm-15-14.676l15.5 8.78 15.5-8.78v-17.514l-15.5-8.777-15.5 8.776v17.513z"/><path fill="#FFF" d="M95.738 166.575l-20.5-11.704v-23.454l20.5-11.704 20.5 11.704v23.455l-20.5 11.705zm-15.5-14.675l15 8.778 15-8.778v-17.513l-15-8.78-15 8.78V151.9z"/><path fill="#FFF" d="M131.238 166.575l-21-11.704v-23.454l21-11.704 21 11.704v23.455l-21 11.705zm-15-14.675l15.5 8.778 15.5-8.778v-17.513l-15.5-8.78-15.5 8.78V151.9z"/></svg>