<svg xmlns="http://www.w3.org/2000/svg" width="800" height="450" viewBox="0.342 -6.093 800 450" enable-background="new 0.342 -6.093 800 450"><path fill="#fff" d="M.342 27.77v410.3c0 3.226 2.238 5.838 5 5.838h790c2.762 0 5-2.612 5-5.838V27.77h-800z"/><path fill="#E2E2E2" d="M800.342 27.77V-.652c0-3.037-2.238-5.5-5-5.5h-790c-2.762 0-5 2.463-5 5.5V27.77h800z"/><path fill="#FC605B" d="M21.715 11.654c0 3.306-2.65 5.987-5.92 5.987-3.265 0-5.916-2.68-5.916-5.982s2.65-5.985 5.912-5.985c3.268 0 5.92 2.68 5.92 5.985z"/><ellipse fill="#FDBF41" cx="35.831" cy="11.655" rx="5.917" ry="5.986"/><ellipse fill="#33C748" cx="55.96" cy="11.655" rx="5.918" ry="5.986"/><path fill="#EDEDED" d="M40.342 70.407h720v327h-720z"/><path d="M40.342 70.407h195.586v327H40.342zm524.413 0h195.587v327H564.755zm-260.565 0h195.585v327H304.19z" fill="#E5E5E5"/></svg>