<?xml version="1.0" encoding="utf-8"?>
<!-- Generator: Adobe Illustrator 16.0.4, SVG Export Plug-In . SVG Version: 6.00 Build 0)  -->
<!DOCTYPE svg PUBLIC "-//W3C//DTD SVG 1.1//EN" "http://www.w3.org/Graphics/SVG/1.1/DTD/svg11.dtd">
<svg version="1.1" id="Layer_1" xmlns="http://www.w3.org/2000/svg" xmlns:xlink="http://www.w3.org/1999/xlink" x="0px" y="0px"
	 width="440px" height="190px" viewBox="0 0 440 190" enable-background="new 0 0 440 190" xml:space="preserve">
<g>
	<g>
		<rect x="5" y="121.25" fill="#F8F8F8" width="29" height="58"/>
	</g>
	<g>
		<rect x="197" y="6.25" fill="#F8F8F8" width="237" height="139"/>
	</g>
	<g>
		<rect x="69" y="64.25" fill="#F8F8F8" width="91" height="115"/>
	</g>
	<g>
		<path fill="#FFFFFF" d="M33.218,111.728H5.842c-2.492,0-4.512,1.877-4.512,4.192v68.615c0,2.314,2.02,4.191,4.512,4.191h27.376
			c2.491,0,4.511-1.877,4.511-4.191V115.92C37.729,113.604,35.709,111.728,33.218,111.728z M33.162,178.303H5.737v-55.808h27.425
			V178.303z"/>
		<path fill="#DDDDDD" d="M33.218,189.227H5.842c-2.764,0-5.012-2.104-5.012-4.691V115.92c0-2.587,2.248-4.692,5.012-4.692h27.376
			c2.763,0,5.011,2.105,5.011,4.692v68.615C38.229,187.122,35.98,189.227,33.218,189.227z M5.842,112.228
			c-2.212,0-4.012,1.656-4.012,3.692v68.615c0,2.035,1.8,3.691,4.012,3.691h27.376c2.211,0,4.011-1.656,4.011-3.691V115.92
			c0-2.036-1.799-3.692-4.011-3.692H5.842z M33.162,178.803H5.737c-0.276,0-0.5-0.224-0.5-0.5v-55.808c0-0.276,0.224-0.5,0.5-0.5
			h27.425c0.276,0,0.5,0.224,0.5,0.5v55.808C33.662,178.579,33.438,178.803,33.162,178.803z M6.237,177.803h26.425v-54.808H6.237
			V177.803z"/>
	</g>
	<g>
		<path fill-rule="evenodd" clip-rule="evenodd" fill="#DDDDDD" d="M19.521,118.771c-0.854,0-1.709,0.002-2.563,0
			c-0.513,0-0.867-0.315-0.874-0.771c-0.008-0.462,0.354-0.792,0.876-0.792c1.725-0.002,3.45-0.002,5.176-0.002
			c0.331,0,0.591,0.13,0.747,0.43c0.146,0.282,0.118,0.559-0.064,0.813c-0.167,0.23-0.404,0.323-0.685,0.322
			C21.263,118.771,20.392,118.771,19.521,118.771z"/>
	</g>
	<g>
		<path fill-rule="evenodd" clip-rule="evenodd" fill="#DDDDDD" d="M20.311,115.218c0.007,0.426-0.35,0.789-0.776,0.791
			c-0.426,0.003-0.787-0.357-0.786-0.783c0.001-0.416,0.348-0.77,0.765-0.778C19.938,114.437,20.305,114.79,20.311,115.218z"/>
	</g>
	<g>
		<g>
			<path fill-rule="evenodd" clip-rule="evenodd" fill="#DDDDDD" d="M22.976,183.398c-0.002,1.898-1.557,3.445-3.457,3.441
				c-1.896-0.006-3.442-1.564-3.434-3.463c0.008-1.887,1.556-3.428,3.444-3.428C21.428,179.949,22.979,181.5,22.976,183.398z
				 M19.506,184.584c0.205,0,0.411,0.006,0.616-0.002c0.346-0.012,0.589-0.25,0.596-0.592c0.008-0.387,0.008-0.773,0-1.158
				c-0.007-0.363-0.262-0.621-0.623-0.627c-0.386-0.008-0.772-0.006-1.158,0c-0.333,0.004-0.584,0.238-0.594,0.566
				c-0.013,0.42-0.012,0.84-0.001,1.258c0.008,0.326,0.241,0.543,0.572,0.553C19.111,184.59,19.309,184.584,19.506,184.584z"/>
		</g>
		<g>
			<path fill-rule="evenodd" clip-rule="evenodd" fill="#DDDDDD" d="M19.513,184.373c-0.189,0-0.378,0.006-0.566-0.002
				c-0.248-0.008-0.388-0.137-0.394-0.377c-0.008-0.395-0.01-0.789,0.001-1.184c0.006-0.246,0.163-0.391,0.412-0.395
				c0.37-0.006,0.74-0.006,1.108,0c0.264,0.006,0.426,0.17,0.432,0.439c0.008,0.369,0.007,0.738,0,1.107
				c-0.006,0.25-0.149,0.395-0.401,0.408C19.907,184.379,19.71,184.373,19.513,184.373L19.513,184.373z"/>
		</g>
	</g>
	<g id="Desktop_1_">
		<g id="Desktop">
			<g>
				<path fill="#FFFFFF" d="M431.5,1.273H197.895c-3.959,0-7.169,3.16-7.169,7.06V145.67c0,3.898,3.21,7.059,7.169,7.059H431.5
					c3.96,0,7.17-3.16,7.17-7.059V8.333C438.67,4.434,435.46,1.273,431.5,1.273z M428.523,141.414H200.872V10.539h227.651V141.414z"
					/>
				<path fill="#DDDDDD" d="M431.5,153.229H197.895c-4.229,0-7.669-3.391-7.669-7.559V8.333c0-4.168,3.44-7.56,7.669-7.56H431.5
					c4.229,0,7.67,3.391,7.67,7.56V145.67C439.17,149.838,435.729,153.229,431.5,153.229z M197.895,1.773
					c-3.677,0-6.669,2.942-6.669,6.56V145.67c0,3.616,2.992,6.559,6.669,6.559H431.5c3.678,0,6.67-2.942,6.67-6.559V8.333
					c0-3.617-2.992-6.56-6.67-6.56H197.895z M429.023,141.914H200.372V10.039h228.651V141.914z M201.372,140.914h226.651V11.039
					H201.372V140.914z"/>
			</g>
		</g>
		<g>
			<path fill="#FFFFFF" d="M339.738,167.145l-0.573-14.416H290.23l-0.573,14.416c-1.757,11.174-29.266,21.582-13.124,21.582h76.329
				C369.004,188.727,341.496,178.318,339.738,167.145z"/>
			<path fill="#DDDDDD" d="M352.862,189.227h-76.329c-3.473,0-5.113-0.459-5.485-1.536c-0.55-1.594,2.063-3.64,6.02-6.737
				c4.77-3.734,11.303-8.849,12.095-13.887l0.587-14.838h49.896l0.592,14.896c0.787,4.979,7.32,10.094,12.09,13.828
				c3.956,3.097,6.569,5.143,6.02,6.737C357.976,188.768,356.335,189.227,352.862,189.227z M290.711,153.229l-0.554,13.936
				c-0.859,5.484-7.298,10.526-12.473,14.577c-2.816,2.204-6.008,4.703-5.69,5.623c0.089,0.26,0.711,0.862,4.54,0.862h76.329
				c3.829,0,4.45-0.603,4.54-0.862c0.317-0.92-2.875-3.419-5.69-5.624c-5.174-4.05-11.613-9.092-12.467-14.518l-0.56-13.994H290.711
				z"/>
		</g>
	</g>
	<g>
		<path fill="#FFFFFF" d="M68.084,55.855c30.808,0,61.615,0,92.423,0c0.187,0.085,0.364,0.206,0.56,0.247
			c2.482,0.53,4.039,2.399,4.039,4.903c0.002,40.891,0.002,81.78-0.002,122.67c0,0.357-0.011,0.725-0.088,1.072
			c-0.55,2.463-2.523,3.977-5.182,3.977c-16.963,0.002-33.925,0-50.888,0c-13.391,0-26.78,0-40.17,0.002
			c-1.714,0.002-3.165-0.559-4.283-1.904c-0.952-1.145-1.04-2.492-1.04-3.9c0.011-40.38,0.009-80.76,0.009-121.139
			c0-0.361,0.002-0.722,0.012-1.081c0.062-2.242,1.665-4.131,3.87-4.582C67.598,56.067,67.838,55.945,68.084,55.855z
			 M154.828,122.604c0-17.625,0-35.25,0-52.876c0-1.349-0.001-1.35-1.384-1.35c-26.122,0-52.244,0-78.367,0
			c-1.315,0-1.316,0.002-1.316,1.308c-0.001,35.28-0.001,70.561,0,105.841c0,1.305,0.001,1.305,1.319,1.305
			c26.122,0,52.245,0,78.367,0c1.38,0,1.381,0,1.381-1.352C154.828,157.855,154.828,140.229,154.828,122.604z"/>
		<path fill="#DDDDDD" d="M68.776,189.227h-0.009c-1.942,0-3.51-0.701-4.659-2.085c-1.066-1.281-1.155-2.787-1.155-4.22
			c0.009-34.976,0.009-69.952,0.009-104.927V61.783c0-0.366,0.002-0.731,0.012-1.095c0.068-2.478,1.824-4.558,4.27-5.058
			c0.143-0.03,0.28-0.089,0.419-0.146c0.083-0.034,0.166-0.068,0.25-0.099l0.171-0.03h92.531l0.099,0.045
			c0.067,0.03,0.133,0.064,0.199,0.099c0.098,0.051,0.19,0.1,0.256,0.114c2.737,0.584,4.437,2.651,4.437,5.393
			c0.002,40.891,0.002,81.78-0.002,122.67c0,0.38-0.012,0.785-0.1,1.181c-0.602,2.694-2.774,4.368-5.67,4.368l-16.962,0.001
			l-33.925-0.001L68.776,189.227z M68.179,56.355l-0.137,0.054c-0.196,0.08-0.393,0.158-0.596,0.2
			c-1.99,0.407-3.417,2.095-3.472,4.106c-0.01,0.355-0.012,0.71-0.012,1.067v16.211c0,34.976,0,69.952-0.009,104.927
			c0,1.302,0.071,2.555,0.924,3.581c0.964,1.16,2.236,1.724,3.89,1.724v0.5l0.008-0.5l57.133-0.002l16.963,0.001l16.962-0.001
			c2.438,0,4.192-1.341,4.694-3.586c0.066-0.3,0.076-0.64,0.076-0.963c0.004-40.89,0.004-81.779,0.002-122.67
			c0-2.243-1.396-3.934-3.644-4.415c-0.2-0.042-0.367-0.129-0.514-0.206l-0.059-0.03H68.179z M153.447,177.332H75.08
			c-1.598,0-1.819-0.22-1.819-1.805V69.687c0-1.588,0.221-1.808,1.816-1.808h78.367c1.655,0,1.884,0.225,1.884,1.85V175.48
			C155.328,177.107,155.1,177.332,153.447,177.332z M75.077,68.879c-0.362,0-0.737,0-0.829,0.042
			c0.013,0.038,0.013,0.408,0.013,0.766v105.841c0,0.357,0,0.727,0.041,0.817c0.038-0.013,0.415-0.013,0.779-0.013h78.367
			c0.387,0,0.788,0,0.883-0.045c-0.002-0.048-0.002-0.434-0.002-0.807V69.729c0-0.372,0-0.757-0.044-0.85c-0.05,0-0.452,0-0.84,0
			H75.077z"/>
	</g>
	<g>
		<path fill-rule="evenodd" clip-rule="evenodd" fill="#DDDDDD" d="M113.894,62.387c0.01,0.616-0.506,1.142-1.123,1.145
			c-0.615,0.004-1.138-0.517-1.135-1.132c0.001-0.602,0.502-1.112,1.105-1.126C113.355,61.258,113.885,61.771,113.894,62.387z"/>
	</g>
	<g>
		<g>
			<path fill-rule="evenodd" clip-rule="evenodd" fill="#DDDDDD" d="M116.608,182.801c-0.003,2.326-1.909,4.225-4.238,4.217
				c-2.326-0.006-4.22-1.916-4.21-4.244c0.01-2.314,1.908-4.203,4.223-4.203C114.711,178.57,116.611,180.473,116.608,182.801z
				 M112.354,184.254c0.251,0,0.504,0.008,0.755-0.002c0.424-0.014,0.723-0.307,0.731-0.727c0.009-0.473,0.008-0.947,0-1.422
				c-0.009-0.443-0.321-0.758-0.765-0.768c-0.474-0.008-0.947-0.006-1.42,0c-0.408,0.006-0.715,0.293-0.728,0.697
				c-0.016,0.514-0.015,1.027-0.002,1.539c0.01,0.4,0.296,0.668,0.702,0.68C111.87,184.26,112.112,184.254,112.354,184.254z"/>
		</g>
		<g>
			<path fill-rule="evenodd" clip-rule="evenodd" fill="#DDDDDD" d="M112.363,183.994c-0.232,0-0.464,0.008-0.695,0
				c-0.304-0.012-0.476-0.17-0.482-0.465c-0.01-0.484-0.012-0.967,0.001-1.449c0.008-0.303,0.2-0.48,0.506-0.484
				c0.454-0.008,0.907-0.01,1.359,0c0.323,0.008,0.521,0.209,0.528,0.537c0.01,0.453,0.009,0.906,0,1.361
				c-0.006,0.307-0.184,0.482-0.492,0.496C112.847,184.004,112.604,183.994,112.363,183.994L112.363,183.994z"/>
		</g>
	</g>
</g>
</svg>
