<svg xmlns="http://www.w3.org/2000/svg" width="800" height="500" viewBox="0 0 800 500"><path fill="#F8F8F8" d="M-8.5-6.5h856v530h-856z"/><g fill="#1A1A1A"><path d="M455.012 333.925H344.988V189.082h17.15v6.574h-10.576v131.692h96.876V195.656H437.86v-6.574h17.152"/><path d="M440.536 206.077h-81.072v-12.123c0-6.683 5.438-12.12 12.122-12.12h14.14v-1.487c0-7.87 6.402-14.27 14.27-14.27 7.87 0 14.275 6.4 14.275 14.27v1.488h14.14c6.688 0 12.123 5.437 12.123 12.12v12.122h.003zm-74.496-6.575h67.92v-5.548c0-3.058-2.49-5.545-5.546-5.545h-20.72v-8.063c0-4.244-3.454-7.697-7.698-7.697-4.24 0-7.694 3.453-7.694 7.697v8.062h-20.716c-3.06 0-5.548 2.486-5.548 5.544l.002 5.548zM389.506 284.272l-23.338-23.34 4.65-4.647 18.688 18.69 39.68-39.677 4.646 4.65"/></g></svg>