<svg width="53" height="53" viewBox="0 0 53 53" xmlns="http://www.w3.org/2000/svg" xmlns:xlink="http://www.w3.org/1999/xlink"><title>zapier-logomark</title><defs><path id="a" d="M.008.005H53V53H.008V.005z"/></defs><g fill="none" fill-rule="evenodd"><mask id="b" fill="#fff"><use xlink:href="#a"/></mask><path d="M33.125 26.512c0 1.97-.36 3.854-1.018 5.594-1.74.656-3.626 1.018-5.596 1.02h-.02c-1.97-.002-3.856-.362-5.596-1.02-.656-1.74-1.018-3.625-1.02-5.594v-.023c.002-1.97.363-3.856 1.018-5.596 1.74-.656 3.627-1.018 5.597-1.02h.02c1.97.002 3.857.364 5.597 1.02.657 1.74 1.017 3.625 1.018 5.595v.022zm19.507-4.43h-15.47l10.94-10.937c-.86-1.207-1.82-2.34-2.865-3.385-1.045-1.044-2.176-2.002-3.382-2.86L30.917 15.836V.367C29.485.128 28.014.002 26.514 0h-.028c-1.5 0-2.97.128-4.403.368v15.47L11.145 4.897c-1.206.86-2.338 1.82-3.383 2.863l-.004.005c-1.043 1.044-2 2.175-2.86 3.38l10.94 10.938H.367S0 24.99 0 26.49v.02c0 1.5.128 2.973.368 4.407h15.47L4.897 41.854c1.72 2.414 3.834 4.528 6.248 6.247l10.937-10.937v15.47c1.43.238 2.9.366 4.398.367h.04c1.498 0 2.966-.13 4.397-.368v-15.47l10.938 10.94c1.206-.86 2.337-1.818 3.382-2.862l.003-.003c1.044-1.045 2.002-2.176 2.86-3.382L37.164 30.917h15.47c.238-1.43.366-2.9.367-4.398v-.04c0-1.498-.13-2.966-.368-4.397z" fill="#FF4A00" mask="url(#b)"/></g></svg>