<svg xmlns="http://www.w3.org/2000/svg" width="800" height="500" viewBox="0 0 800 500"><path fill="#F3D65E" d="M-7-9h821v529H-7z"/><path fill="#333" d="M332.606 341.35h-43.214c-1.585 0-2.87-1.285-2.87-2.87V161.52c0-1.585 1.285-2.87 2.87-2.87h43.214c1.585 0 2.87 1.285 2.87 2.87v176.96c0 1.584-1.284 2.87-2.87 2.87zm-40.343-5.74h37.474V164.39h-37.474v171.22z"/><path fill="#333" d="M380.647 341.35h-48.04c-1.586 0-2.87-1.285-2.87-2.87V205.313c0-1.586 1.284-2.87 2.87-2.87h48.04c1.586 0 2.87 1.284 2.87 2.87V338.48c0 1.584-1.284 2.87-2.87 2.87zm-45.17-5.74h42.3V208.182h-42.3V335.61zm87.41 5.74h-18.854c-1.584 0-2.87-1.285-2.87-2.87V216.235c0-1.585 1.286-2.87 2.87-2.87h18.855c1.585 0 2.87 1.285 2.87 2.87V338.48c0 1.584-1.285 2.87-2.87 2.87zm-15.984-5.74h13.114V219.104h-13.114V335.61z"/><path fill="#333" d="M378.8 225.467h-45.41c-1.586 0-2.87-1.285-2.87-2.87 0-1.586 1.284-2.87 2.87-2.87h45.412c1.585 0 2.87 1.284 2.87 2.87s-1.285 2.87-2.87 2.87zm108.466 78.123h-64.378c-1.584 0-2.87-1.284-2.87-2.87s1.286-2.87 2.87-2.87h64.378c1.585 0 2.87 1.286 2.87 2.87s-1.285 2.87-2.87 2.87zM377.99 238.43h-45.412c-1.586 0-2.87-1.286-2.87-2.87 0-1.587 1.284-2.872 2.87-2.872h45.412c1.585 0 2.87 1.285 2.87 2.87 0 1.586-1.284 2.87-2.87 2.87zm1.75 72.677h-45.415c-1.585 0-2.87-1.286-2.87-2.87 0-1.585 1.284-2.87 2.87-2.87h45.414c1.583 0 2.87 1.285 2.87 2.87 0 1.584-1.287 2.87-2.87 2.87zm-.812 12.96h-45.412c-1.586 0-2.87-1.284-2.87-2.87s1.284-2.87 2.87-2.87h45.412c1.586 0 2.87 1.286 2.87 2.87s-1.284 2.87-2.87 2.87z"/><path fill="#333" d="M487.266 341.35h-64.378c-1.584 0-2.87-1.285-2.87-2.87V186.72c0-1.586 1.286-2.87 2.87-2.87h64.378c1.585 0 2.87 1.284 2.87 2.87v151.76c0 1.584-1.285 2.87-2.87 2.87zm-61.508-5.74h58.638V189.59h-58.638v146.02z"/><path fill="#333" d="M518.615 341.078c-1.323 0-2.512-.92-2.8-2.266L488.16 210.78c-.162-.75-.02-1.53.398-2.17.417-.642 1.073-1.09 1.82-1.246l21.99-4.588c1.548-.324 3.06.662 3.393 2.203l27.656 128.03c.163.747.02 1.53-.397 2.17-.418.64-1.074 1.09-1.82 1.246l-21.99 4.59c-.2.042-.398.06-.593.06zm-24.233-128.685l26.44 122.423 16.372-3.418-26.44-122.42-16.372 3.415z"/><path fill="#333" d="M493.84 225.704c-1.33 0-2.524-.93-2.807-2.286-.323-1.552.675-3.072 2.226-3.396l20.415-4.248c1.558-.315 3.073.674 3.396 2.226.324 1.552-.674 3.072-2.226 3.396l-20.417 4.248c-.2.04-.396.06-.59.06zm23.815 103.87c-1.33 0-2.525-.93-2.808-2.286-.323-1.553.675-3.072 2.226-3.396l20.433-4.25c1.556-.314 3.072.674 3.396 2.227s-.674 3.07-2.226 3.393l-20.433 4.25c-.198.04-.393.06-.588.06zm-33.23-101.51h-59.758c-1.585 0-2.87-1.284-2.87-2.87 0-1.585 1.285-2.87 2.87-2.87h59.758c1.585 0 2.87 1.285 2.87 2.87 0 1.586-1.285 2.87-2.87 2.87zm-81.09 113.286h-22.688c-1.585 0-2.87-1.285-2.87-2.87V224.904c0-1.585 1.285-2.87 2.87-2.87h22.687c1.584 0 2.87 1.285 2.87 2.87V338.48c0 1.584-1.286 2.87-2.87 2.87zm-19.817-5.74h16.945V227.773h-16.945V335.61zm-61.036-152.7H299.52c-1.587 0-2.872-1.284-2.872-2.87s1.285-2.87 2.87-2.87h22.964c1.585 0 2.87 1.285 2.87 2.87s-1.285 2.87-2.87 2.87zm0 16.406H299.52c-1.587 0-2.872-1.285-2.872-2.87 0-1.586 1.285-2.87 2.87-2.87h22.964c1.585 0 2.87 1.284 2.87 2.87s-1.285 2.87-2.87 2.87zm-33.09 142.034H259.39c-1.586 0-2.87-1.285-2.87-2.87V214.84c0-1.585 1.284-2.87 2.87-2.87h30.002c1.586 0 2.87 1.285 2.87 2.87v123.64c0 1.584-1.284 2.87-2.87 2.87zm-27.132-5.74h24.262v-117.9H262.26v117.9z"/><path fill="#333" d="M287.413 245.795H259.57c-1.585 0-2.87-1.285-2.87-2.87 0-1.586 1.285-2.87 2.87-2.87h27.843c1.586 0 2.87 1.284 2.87 2.87s-1.284 2.87-2.87 2.87zm1.07 67.475h-27.84c-1.587 0-2.87-1.285-2.87-2.87 0-1.584 1.283-2.87 2.87-2.87h27.84c1.585 0 2.87 1.286 2.87 2.87 0 1.585-1.285 2.87-2.87 2.87z"/></svg>