<svg xmlns="http://www.w3.org/2000/svg" width="440" height="190" viewBox="0 0 440 190"><path fill="#F8F8F8" d="M5 121.25h29v58H5zm192-115h237v139H197zm-128 58h91v115H69z"/><path fill="#fff" stroke="#E2E2E2" stroke-linecap="round" stroke-linejoin="round" stroke-miterlimit="10" d="M33.218 111.728H5.842c-2.492 0-4.512 1.877-4.512 4.192v68.615c0 2.314 2.02 4.19 4.512 4.19h27.376c2.49 0 4.51-1.876 4.51-4.19V115.92c0-2.316-2.02-4.192-4.51-4.192zm-.056 66.575H5.737v-55.808h27.425v55.808z"/><path fill-rule="evenodd" clip-rule="evenodd" fill="#E2E2E2" d="M19.52 118.77c-.853 0-1.708.003-2.562 0-.513 0-.867-.314-.874-.77-.008-.462.354-.792.876-.792 1.725-.002 3.45-.002 5.176-.002.33 0 .59.13.747.43.146.282.118.56-.064.813-.17.23-.41.32-.69.32h-2.61zm.79-3.552c.008.426-.35.79-.775.79-.426.004-.787-.356-.786-.782 0-.416.34-.77.76-.778.42-.01.79.342.794.77zm2.666 68.18c-.002 1.898-1.557 3.445-3.457 3.44-1.9-.005-3.45-1.563-3.44-3.462.01-1.887 1.554-3.428 3.442-3.428 1.898 0 3.45 1.552 3.446 3.45zm-3.47 1.186c.205 0 .41.006.616-.002.346-.012.59-.25.596-.592.008-.387.008-.773 0-1.158-.007-.363-.262-.62-.623-.627-.386-.008-.772-.006-1.158 0-.333.004-.584.238-.594.566-.013.42-.012.84 0 1.26.007.33.24.55.57.56.198.007.396 0 .593 0zm.007-.21c-.19 0-.378.005-.566-.003-.248 0-.388-.13-.394-.37-.008-.394-.01-.79 0-1.183.007-.245.164-.39.413-.394.37-.006.74-.006 1.108 0 .264.006.426.17.432.44.008.368.007.737 0 1.106-.006.25-.15.395-.4.41-.2.01-.396.002-.593.002z"/><path d="M431.5 1.273H197.895c-3.96 0-7.17 3.16-7.17 7.06V145.67c0 3.898 3.21 7.06 7.17 7.06H431.5c3.96 0 7.17-3.16 7.17-7.06V8.333c0-3.9-3.21-7.06-7.17-7.06zm-2.977 140.14h-227.65V10.54h227.65v130.874zm-88.785 25.732l-.573-14.416H290.23l-.573 14.41c-1.757 11.172-29.266 21.58-13.124 21.58h76.33c16.14 0-11.367-10.41-13.125-21.58zM68.084 55.855h92.423c.187.085.364.206.56.247 2.482.53 4.04 2.4 4.04 4.903 0 40.89 0 81.78-.003 122.67 0 .357-.01.725-.088 1.072-.55 2.463-2.523 3.977-5.182 3.977-16.963.002-33.925 0-50.888 0-13.39 0-26.78 0-40.17.002-1.714.002-3.165-.56-4.283-1.904-.952-1.145-1.04-2.492-1.04-3.9.01-40.38.01-80.76.01-121.14 0-.36 0-.72.01-1.08.063-2.242 1.666-4.13 3.87-4.582.255-.053.495-.175.74-.265zm86.744 66.75V69.727c0-1.35 0-1.35-1.384-1.35H75.077c-1.315 0-1.316.002-1.316 1.308v105.84c0 1.306.01 1.306 1.32 1.306h78.37c1.38 0 1.38 0 1.38-1.35v-52.87z" fill="#fff" stroke="#E2E2E2" stroke-miterlimit="10"/><path fill-rule="evenodd" clip-rule="evenodd" fill="#E2E2E2" d="M113.894 62.387c.01.616-.506 1.142-1.123 1.145-.61.004-1.13-.517-1.13-1.132 0-.602.5-1.112 1.108-1.126.615-.016 1.145.497 1.154 1.113zm2.714 120.413c-.003 2.327-1.91 4.226-4.238 4.218-2.326-.006-4.22-1.916-4.21-4.244.01-2.314 1.908-4.203 4.223-4.203 2.328 0 4.228 1.91 4.225 4.23zm-4.254 1.454c.25 0 .504.008.755-.002.42-.014.72-.307.73-.727.01-.473 0-.947 0-1.422-.01-.443-.32-.758-.77-.768-.476-.008-.95-.006-1.42 0-.41.006-.717.293-.73.697-.016.514-.015 1.027 0 1.54.01.4.295.667.7.68.244.008.486.002.728.002zm.01-.26c-.233 0-.465.008-.696 0-.304-.012-.476-.17-.482-.465-.01-.49-.012-.97 0-1.45.01-.31.2-.48.507-.49.454-.01.907-.01 1.36 0 .322.01.52.21.527.536.01.453.01.906 0 1.36-.006.31-.184.483-.492.497-.24.013-.484.003-.725.003z"/></svg>