<svg xmlns="http://www.w3.org/2000/svg" width="800" height="450.664" viewBox="0 0 800 450.664"><path fill="#F8F8F8" d="M800 445.335c0 2.943-2.238 5.328-5 5.328H5c-2.762 0-5-2.385-5-5.328V29.708c0-2.944 2.238-5.33 5-5.33h790c2.762 0 5 2.386 5 5.33v415.627z"/><path fill="#E2E2E1" d="M800 34.758V5.634C800 2.522 797.762 0 795 0H5C2.24 0 0 2.522 0 5.634v29.124h800z"/><path fill="#EC5E5A" d="M21.374 18.245c0 3.387-2.652 6.134-5.92 6.134-3.266 0-5.917-2.748-5.917-6.135 0-3.387 2.65-6.133 5.917-6.133 3.27 0 5.92 2.746 5.92 6.133z"/><ellipse fill="#E8B25D" cx="35.489" cy="18.245" rx="5.918" ry="6.134"/><ellipse fill="#81C355" cx="55.619" cy="18.245" rx="5.918" ry="6.134"/><path fill="#E5E5E5" d="M33.66 68.14h200.98V248.84H33.66zM564.676 68.14h200.982V248.84H564.676zM299.663 68.14h199.992V248.84H299.663z"/><path opacity=".4" fill="#9EC3E4" d="M33.66 68.14h732V248.84h-732z"/></svg>